<svg width="16" height="16" viewBox="0 0 16 16" fill="none" xmlns="http://www.w3.org/2000/svg">
<path fill-rule="evenodd" clip-rule="evenodd" d="M8 15.5C12.1421 15.5 15.5 12.1421 15.5 8C15.5 6.62743 15.1313 5.34097 14.4875 4.23428L8.86047 10.4865C7.99463 11.4486 6.53767 11.5907 5.50223 10.8141L3.08335 8.99997C2.53106 8.58576 2.41913 7.80226 2.83335 7.24997C3.24756 6.69769 4.03106 6.58576 4.58335 6.99997L7.00223 8.81414L12.8692 2.29532C11.5589 1.17592 9.8584 0.5 8 0.5C3.85786 0.5 0.5 3.85786 0.5 8C0.5 12.1421 3.85786 15.5 8 15.5Z" fill="#074B4B"/>
</svg>
